<?xml version="1.0" encoding="utf-8"?>
<!-- Generator: Adobe Illustrator 25.4.1, SVG Export Plug-In . SVG Version: 6.00 Build 0)  -->
<svg version="1.0" id="Layer_1" xmlns="http://www.w3.org/2000/svg" xmlns:xlink="http://www.w3.org/1999/xlink" x="0px" y="0px"
	 viewBox="0 0 945 710.9" style="enable-background:new 0 0 945 710.9;" xml:space="preserve">
<style type="text/css">
	.st0{fill:#83008F;}
</style>
<polygon class="st0" points="243.1,321 350.8,200 124,241.5 "/>
<path d="M778.9,389.8c3.8,0,7.5-1.1,10.6-3.2v7.3c-3.6,2-7.7,3.1-11.9,3.1c-10,0-16.2-5.7-16.2-15.6v-28.9h-8.1l17.6-19.7v12.3h16
	v7.4h-16V381C770.9,387.5,774.8,389.8,778.9,389.8"/>
<path d="M456.4,321v45.8c0,9.7-2.4,17.5-8,23.1l0,0c-4.8,4.9-12.6,7.6-22.3,7.6s-17.7-2.7-22.5-7.6c-5.5-5.5-7.9-13.3-7.9-23.1
	v-29.2c0-8.4-0.5-14.1-5.9-16.2V321h16.5v45.8c0,7.5,1.5,13.3,5.2,17c3.5,3.5,8.5,5.4,14.7,5.4s11.1-1.9,14.6-5.4
	c3.7-3.7,5.2-9.5,5.2-17V321L456.4,321L456.4,321z"/>
<path d="M470.8,356.6c0-5-0.4-9.3-5.3-11v-0.4h14.2l0.2,7.9c5-7.8,12.1-9.2,17.4-9.2c3.9,0,16.7,1.4,16.7,19.3v32.7h-9.6V363
	c0-7.4-4-11.9-10.7-11.9c-5.2,0-10.2,3.3-13.4,9v35.7h-9.6L470.8,356.6"/>
<path d="M538.1,345.2v50.6h-9.6v-39.2c0-5-0.4-9.3-5.3-11v-0.4L538.1,345.2z"/>
<path d="M526.6,327.7c0-3.3,2.7-6,6-5.9c3.3,0,6,2.7,5.9,6c0,3.3-2.7,5.9-6,6C529.3,333.7,526.6,331,526.6,327.7
	C526.6,327.7,526.6,327.7,526.6,327.7"/>
<path d="M745.5,345.2v50.6h-9.6v-39.2c0-5-0.4-9.3-5.3-11v-0.4L745.5,345.2z"/>
<path d="M734,327.7c0-3.3,2.7-6,6-5.9c3.3,0,6,2.7,5.9,6c0,3.3-2.7,5.9-6,6C736.7,333.7,734,331,734,327.7
	C734,327.7,734,327.7,734,327.7"/>
<path d="M593.9,345.2L572,396h-3.3l-18.1-40.1c-2.1-4.5-4.4-9-7.8-10.3v-0.4h13.3l11.8,27.5c1.2,2.6,2.1,5.3,2.9,8.1
	c0.7-2.7,1.6-5.4,2.7-8l11-27.6L593.9,345.2z"/>
<path d="M606.9,365.2h27.4c-0.6-8.9-5.5-14.1-13.2-14.1C613.6,351.1,608,356.5,606.9,365.2 M606.5,371.5
	c0.7,10.8,7.4,17.1,16.2,17.9c6.3,0.6,12.6-0.8,18-3.9l1.2,7.1c-5.2,3-11.5,4.5-19,4.5c-15.5,0-26.2-11-26.2-26.6
	c0-15.2,10.5-26.7,24.5-26.7c14.3,0,22.5,9.3,22.5,25.6v2.1L606.5,371.5z"/>
<path d="M677.4,352.7c-8.4,0.6-12.7,8.2-12.7,19.6v23.5h-9.6v-39.2c0-5-0.4-9.3-5.3-11v-0.4h14.5c0,1.1,0.1,11.5,0.1,11.5
	c3.5-9.2,10.2-12.6,15.4-12.6c3.2-0.2,6.3,0.8,8.7,2.9c-0.2,0.7-2.1,6.8-2.5,8.2C683.4,353.3,680.4,352.5,677.4,352.7"/>
<path d="M724.5,381.7c0,12.1-11.8,15.5-18.3,15.5c-6,0-11.3-1.3-15.3-3.8v-8.9c4.4,3.5,9.8,5.4,15.3,5.4c6.3,0,8.9-3.5,9-6.8
	c0.2-3.5-2.1-6-6-7.9c-3.4-1.7-6.8-3.3-8.6-4.3c-4.4-2.3-9.4-5.8-9.4-12.8c0-10.5,9.8-14,17.2-14c5.7,0,10.3,1.1,13.7,3.2v8.3
	c-3.8-2.8-8.4-4.3-13.1-4.2c-5.2,0-8.3,2-8.5,5.4s2.2,4.8,4.8,6.3s5.6,2.8,9.6,4.9C719.7,370.3,724.5,373.7,724.5,381.7"/>
<path d="M843,345.2l-35,75.9h-9.5l15.8-34.2l-15.2-31c-2.3-4.6-4.5-9.1-8.4-10.3v-0.4h14l14.5,31.3l14.2-31.3L843,345.2L843,345.2z"
	/>
<path d="M240.4,389.8c3.8,0,7.5-1.1,10.7-3.1v7.3c-3.6,2-7.7,3.1-11.9,3.1c-10,0-16.2-5.7-16.2-15.6v-28.9h-8.1l17.6-19.7v12.3h16
	v7.4h-16V381C232.5,387.5,236.4,389.8,240.4,389.8"/>
<path d="M263.7,370.5c0,11.1,7.3,19.2,17.3,19.2s17.3-8.1,17.3-19.2s-7.3-19.2-17.3-19.2S263.7,359.4,263.7,370.5 M253.8,370.5
	c0-15.2,11.7-26.6,27.2-26.6c15.8,0,27.2,11.2,27.2,26.6c0,13.2-9.4,26.6-27.4,26.6C265.3,397.1,253.7,385.7,253.8,370.5"/>
<path d="M123.5,365.5l12.8-31.6l13.4,31.6H123.5z M162.6,395.8h10.6L141.2,321h-14.6v0.4c4.1,1.9,3.1,6.9,0.4,13.7l-25,60.6h9.3
	l9.3-23h32.2L162.6,395.8z"/>
<path d="M319.1,356.6c0-5-0.4-9.3-5.3-11v-0.4h14.2l0.3,7.9c5-7.8,12.1-9.2,17.3-9.2c3.9,0,16.8,1.4,16.8,19.3v32.6h-9.6V363
	c0-7.4-4-11.9-10.7-11.9c-5.2,0-10.2,3.3-13.4,9v35.6h-9.6L319.1,356.6"/>
<path d="M211,381.2c0.2,12.1-11.3,15.8-17.8,15.9c-6.2,0-11.4-1-15.5-3.4v-8.9c4.4,3.4,9.8,5.1,15.3,5c6.2-0.1,8.8-3.6,8.9-7
	c0.1-3.4-2.3-5.9-6.2-7.7c-3.4-1.6-6.9-3.2-8.7-4c-4.4-2.3-9.6-5.7-9.8-12.7c-0.3-10.6,9.9-14.4,17-14.5c5.7-0.1,10.3,0.8,13.7,2.9
	v8.3c-3.8-2.7-8.4-4-13-3.9c-5.1,0-8.4,2.2-8.4,5.6s2.3,4.7,5,6.1c2.5,1.3,5.7,2.6,9.7,4.6C205.9,370,210.9,373.2,211,381.2"/>
<path d="M163.8,466.6c0-2.8-2.1-4.4-6-4.4h-8.7v9.1h8.2C161.2,471.3,163.8,469.8,163.8,466.6 M165.7,481c0-2.9-2.3-4.6-7-4.6h-9.6
	v9.4h10C163.2,485.8,165.7,484.2,165.7,481 M218.5,473.9c4.3,0,7-2.2,7-5.8c0-3.8-2.6-5.7-7.1-5.7h-8.7v11.5H218.5z M449.2,477.5
	H461l-5.9-13.7L449.2,477.5z M607.9,471.6l14.8,19.5h-7.2l-11.7-15.4l-5.3,5.5v9.9h-6v-34.2h6v17.2l16.3-17.2h7.4L607.9,471.6z
	 M579.3,476.3c0,10.2-5.8,15.3-14.7,15.3c-8.9,0-14.6-5.1-14.6-15v-19.7h6v19.5c0,6.3,3.3,9.8,8.7,9.8s8.6-3.2,8.6-9.5v-19.7h6
	L579.3,476.3L579.3,476.3z M517.4,491.1h-6v-24.5l-10.8,16.1h-0.2l-10.7-16v24.4h-5.9v-34.2h6.4l10.4,16.2l10.4-16.2h6.4
	L517.4,491.1L517.4,491.1z M473,491.1h-6.4l-3.5-8.2H447l-3.5,8.2h-6.2l15-34.4h5.6L473,491.1z M426.6,491.1h-6v-14.4h-16.3v14.4h-6
	v-34.2h6v14.2h16.3v-14.2h6V491.1z M385.6,486.4c-4,3.4-9,5.3-14.3,5.3c-10.7,0-17.7-7.6-17.7-17.6c-0.2-9.6,7.5-17.6,17.1-17.7
	c0.2,0,0.3,0,0.5,0c6,0,9.6,1.7,13.1,4.6l-3.9,4.5c-2.6-2.4-6-3.8-9.6-3.7c-6.3,0-11.1,5.5-11.1,12.1c0,7.1,4.6,12.3,11.6,12.3
	c3,0,5.8-0.9,8.3-2.6v-6.4H371V472h14.6L385.6,486.4L385.6,486.4z M341.4,491.1h-5l-18.9-24.3v24.3h-5.9v-34.2h5.6l18.3,23.7v-23.6
	h5.9L341.4,491.1L341.4,491.1z M297.6,491.1h-6v-34.2h6V491.1z M277.6,491.1h-6v-24.5l-10.8,16.1h-0.3l-10.7-16v24.4h-5.9v-34.2h6.4
	l10.4,16.2l10.4-16.2h6.4L277.6,491.1z M223.6,478.1l9.2,13h-7.1l-8.4-11.9h-7.5v11.9h-6v-34.2h15.2c7.9,0,12.7,4.2,12.7,10.9
	C231.8,473.4,228.4,476.8,223.6,478.1 M189.8,491.1h-6v-34.2h6V491.1z M171.8,481.7c0,6.1-5,9.4-12.6,9.4h-16v-34.2h15.3
	c6.9,0,11.2,3.4,11.2,8.8c0,4.2-2.3,6.4-4.9,7.7c4,1.4,6.8,3.6,6.8,8.3 M655.2,433.8H102v77.1h553.2L655.2,433.8z"/>
</svg>
